# xmcd
#
# Track frame offsets: 
#        150
#        18728
#        34280
#        49982
#        67825
#        85911
#        105302
#        131249
#        157513
#        176771
#
# Disc length: 2656 seconds
#
# Revision: 0
# Processed by: cddbd v1.5.2PL0 Copyright (c) Steve Scherf et al.
# Submitted via: ExactAudioCopy v0.99pb5
#
DISCID=7c0a5e0a
DTITLE=The Wurzels - A Load More Bullocks
DYEAR=2010
DGENRE=Scrumpy and Western
TTITLE0=Rockstar
TTITLE1=Up All Night
TTITLE2=Ruby
TTITLE3=Chelsea Dagger
TTITLE4=Golden Brown
TTITLE5=Go West
TTITLE6=Sowing The Seeds Of Love
TTITLE7=Common People
TTITLE8=Sex Farm
TTITLE9=Ode To Adge Cutler
EXTD=
EXTT0=
EXTT1=
EXTT2=
EXTT3=
EXTT4=
EXTT5=
EXTT6=
EXTT7=
EXTT8=
EXTT9=
PLAYORDER=
